<mxfile host="app.diagrams.net" modified="2023-03-01T10:29:48.604Z" agent="5.0 (Macintosh; Intel Mac OS X 10_15_7) AppleWebKit/537.36 (KHTML, like Gecko) Chrome/110.0.0.0 Safari/537.36" etag="DOwrtt5IQD6aDWbctsk3" version="20.8.23" type="github">
  <diagram name="第 1 页" id="xnMaQcK5nrHJgxy9M0nw">
    <mxGraphModel dx="830" dy="536" grid="1" gridSize="10" guides="1" tooltips="1" connect="1" arrows="1" fold="1" page="1" pageScale="1" pageWidth="827" pageHeight="1169" math="0" shadow="0">
      <root>
        <mxCell id="0" />
        <mxCell id="1" parent="0" />
        <mxCell id="pPlSIeQ1yJEHq8NxDpns-24" value="" style="rounded=0;whiteSpace=wrap;html=1;fontSize=19;" vertex="1" parent="1">
          <mxGeometry x="50" y="80" width="320" height="180" as="geometry" />
        </mxCell>
        <mxCell id="pPlSIeQ1yJEHq8NxDpns-25" value="&amp;nbsp;Socket" style="rounded=0;whiteSpace=wrap;html=1;fontSize=19;align=left;" vertex="1" parent="1">
          <mxGeometry x="70" y="90" width="140" height="30" as="geometry" />
        </mxCell>
        <mxCell id="pPlSIeQ1yJEHq8NxDpns-26" value="&amp;nbsp;TCP" style="rounded=0;whiteSpace=wrap;html=1;fontSize=19;align=left;" vertex="1" parent="1">
          <mxGeometry x="70" y="130" width="140" height="30" as="geometry" />
        </mxCell>
        <mxCell id="pPlSIeQ1yJEHq8NxDpns-27" style="edgeStyle=orthogonalEdgeStyle;rounded=0;orthogonalLoop=1;jettySize=auto;html=1;exitX=0.5;exitY=1;exitDx=0;exitDy=0;fontSize=19;align=left;" edge="1" parent="1" source="pPlSIeQ1yJEHq8NxDpns-26" target="pPlSIeQ1yJEHq8NxDpns-26">
          <mxGeometry relative="1" as="geometry" />
        </mxCell>
        <mxCell id="pPlSIeQ1yJEHq8NxDpns-28" value="&amp;nbsp;IPv4/IPv6" style="rounded=0;whiteSpace=wrap;html=1;fontSize=19;align=left;" vertex="1" parent="1">
          <mxGeometry x="70" y="170" width="140" height="30" as="geometry" />
        </mxCell>
        <mxCell id="pPlSIeQ1yJEHq8NxDpns-29" value="&amp;nbsp;Device Driver" style="rounded=0;whiteSpace=wrap;html=1;fontSize=19;align=left;" vertex="1" parent="1">
          <mxGeometry x="70" y="210" width="140" height="30" as="geometry" />
        </mxCell>
        <mxCell id="pPlSIeQ1yJEHq8NxDpns-30" value="NIC" style="rounded=0;whiteSpace=wrap;html=1;fontSize=19;" vertex="1" parent="1">
          <mxGeometry x="70" y="290" width="140" height="40" as="geometry" />
        </mxCell>
        <mxCell id="pPlSIeQ1yJEHq8NxDpns-31" value="RNIC" style="rounded=0;whiteSpace=wrap;html=1;fontSize=19;" vertex="1" parent="1">
          <mxGeometry x="250" y="290" width="110" height="40" as="geometry" />
        </mxCell>
        <mxCell id="pPlSIeQ1yJEHq8NxDpns-32" value="Application" style="rounded=0;whiteSpace=wrap;html=1;fontSize=19;" vertex="1" parent="1">
          <mxGeometry x="70" y="20" width="300" height="40" as="geometry" />
        </mxCell>
        <mxCell id="pPlSIeQ1yJEHq8NxDpns-33" value="" style="shape=flexArrow;endArrow=classic;html=1;rounded=0;fontSize=19;fillColor=#eeeeee;strokeColor=#36393d;" edge="1" parent="1">
          <mxGeometry width="50" height="50" relative="1" as="geometry">
            <mxPoint x="199" y="60" as="sourcePoint" />
            <mxPoint x="199" y="290" as="targetPoint" />
          </mxGeometry>
        </mxCell>
        <mxCell id="pPlSIeQ1yJEHq8NxDpns-34" value="" style="shape=flexArrow;endArrow=classic;html=1;rounded=0;fontSize=19;fillColor=#eeeeee;strokeColor=#36393d;" edge="1" parent="1">
          <mxGeometry width="50" height="50" relative="1" as="geometry">
            <mxPoint x="280" y="60" as="sourcePoint" />
            <mxPoint x="280" y="290" as="targetPoint" />
          </mxGeometry>
        </mxCell>
        <mxCell id="pPlSIeQ1yJEHq8NxDpns-35" value="Kernel" style="text;html=1;strokeColor=none;fillColor=none;align=center;verticalAlign=middle;whiteSpace=wrap;rounded=0;fontSize=19;" vertex="1" parent="1">
          <mxGeometry x="300" y="90" width="60" height="30" as="geometry" />
        </mxCell>
      </root>
    </mxGraphModel>
  </diagram>
</mxfile>
